<svg xmlns="http://www.w3.org/2000/svg">
  <symbol id="footer-logo" viewBox="0 0 146.3 40.375">
    <g class="footer__logo-svggroup footer__logo-svggroup--big">
      <g>
          <path d="m71.874 18.661c0-.708.58-1.288 1.256-1.288h7.18c5.087 0 8.436 2.704 8.436 7.146v.063c0 4.86-4.057 7.373-8.854 7.373h-5.475v6.825c0 .708-.58 1.287-1.289 1.287-.676 0-1.256-.58-1.256-1.287zm8.114 10.98c3.734 0 6.182-1.996 6.182-4.959v-.062c0-3.221-2.414-4.894-6.053-4.894h-5.699v9.917h5.57z" />
          <path d="m93.603 18.5c0-.708.579-1.288 1.255-1.288.709 0 1.288.58 1.288 1.288v20.283c0 .708-.579 1.287-1.288 1.287-.676 0-1.255-.579-1.255-1.287z" />
          <path d="m102.744 18.532c0-.676.58-1.256 1.256-1.256h.354c.58 0 .935.29 1.288.74l13.684 17.45v-16.998c0-.676.547-1.256 1.256-1.256.676 0 1.225.58 1.225 1.256v20.349c0 .677-.48 1.19-1.158 1.19h-.129c-.548 0-.936-.321-1.318-.772l-13.976-17.867v17.449c0 .677-.547 1.257-1.257 1.257-.676 0-1.223-.58-1.223-1.257v-20.285z" />
          <path d="m128.173 18.5c0-.708.58-1.288 1.257-1.288.708 0 1.286.58 1.286 1.288v12.331l12.848-13.168c.29-.257.579-.451.998-.451.676 0 1.225.612 1.225 1.256 0 .354-.162.644-.42.901l-7.984 7.92 8.564 10.561c.225.291.354.547.354.936 0 .676-.577 1.288-1.285 1.288-.482 0-.807-.259-1.03-.58l-8.401-10.464-4.863 4.861v4.895c0 .708-.578 1.288-1.286 1.288-.677 0-1.257-.58-1.257-1.288v-20.286z" />
      </g>
      <path d="m98.498 9.875c-2.002 0-3.623-1.623-3.623-3.624 0 2.001-1.623 3.624-3.625 3.624 2.002 0 3.625 1.623 3.625 3.624 0-2.001 1.621-3.624 3.623-3.624z" fill="#d22856" />
      <path d="m43.094 19.313c.246 0 .489.014.73.033-.437-.728-1.227-1.221-2.136-1.221-.877 0-1.614-.568-1.884-1.354-.727.208-1.425.482-2.089.816.062.017.122.038.188.038 1.104 0 2 .896 2 2 0 .096-.015.188-.028.281 1-.382 2.084-.593 3.219-.593z" fill="#d22856" />
      <path d="m60.462 28.016c-.002-.009-5.175-21.365-5.175-21.365-.361-2.348-2.593-6.651-8.599-6.651-.829 0-1.5.671-1.5 1.5s.671 1.5 1.5 1.5c4.856 0 5.575 3.729 5.639 4.143l4.767 19.701h-2.073c-.445-3.557-2.453-6.628-5.305-8.522-.897.379-1.529 1.269-1.529 2.303 0 .088-.015.171-.026.256 1.991 1.358 3.415 3.489 3.829 5.965.082.488.135.987.135 1.5 0 .512-.053 1.012-.135 1.5-.716 4.271-4.421 7.53-8.896 7.53s-8.181-3.259-8.896-7.53c-.082-.488-.135-.988-.135-1.5 0-.513.053-1.012.135-1.5.147-.879.427-1.712.808-2.484-1.034-.077-1.852-.932-1.852-1.984 0-.189-.077-.357-.192-.488-.938 1.469-1.569 3.149-1.795 4.957h-1.82c-.741-5.927-5.802-10.531-11.927-10.531s-11.185 4.601-11.927 10.528h-2.073l4.767-19.701c.063-.414.783-4.143 5.639-4.143.829 0 1.5-.671 1.5-1.5s-.671-1.5-1.5-1.5c-6.006 0-8.238 4.303-8.599 6.651 0 0-5.173 21.356-5.175 21.365-.266 1.109.531 1.826 1.426 1.826.012 0 .023.004.036.004h3.982c.079.629.215 1.237.387 1.831.059-.106.102-.224.102-.354 0-1.104.896-2 2-2 .166 0 .324.024.478.062-.043-.343-.074-.688-.074-1.042 0-.512.053-1.011.135-1.5.715-4.271 4.421-7.531 8.896-7.531s8.18 3.26 8.896 7.531c.082.489.135.988.135 1.5s-.053 1.012-.135 1.5c-.715 4.272-4.421 7.531-8.896 7.531-2.022 0-3.883-.67-5.386-1.794-.35.302-.8.491-1.299.491-.413 0-.749.336-.749.748 0 .289-.065.563-.176.812 2.075 1.708 4.722 2.743 7.614 2.743 6.125 0 11.185-4.604 11.927-10.529h1.814c.742 5.926 5.802 10.529 11.927 10.529s11.186-4.604 11.927-10.529h3.981c.012 0 .023-.005.036-.005.895.002 1.692-.715 1.426-1.824z" fill="#d22856" />
      <path d="m50.686 16.125c-2.485 0-4.499-2.014-4.499-4.499 0 2.485-2.014 4.499-4.499 4.499 2.485 0 4.499 2.014 4.499 4.499 0-2.485 2.013-4.499 4.499-4.499z" fill="#283645" />
      <path d="m37.904 19.626c-1.519 0-2.749-1.23-2.749-2.749 0 1.519-1.23 2.749-2.749 2.749 1.519 0 2.749 1.229 2.749 2.749 0-1.52 1.231-2.749 2.749-2.749z" fill="#283645" />
      <path d="m10.734 34.072c-1.519 0-2.749-1.23-2.749-2.75 0 1.52-1.23 2.75-2.749 2.75 1.519 0 2.749 1.229 2.749 2.748 0-1.517 1.23-2.748 2.749-2.748z" fill="#283645" />
    </g>
    <g class="footer__logo-svggroup footer__logo-svggroup--small">
      <g>
          <path d="m71.874 18.661c0-.708.58-1.288 1.256-1.288h7.18c5.087 0 8.436 2.704 8.436 7.146v.063c0 4.86-4.057 7.373-8.854 7.373h-5.475v6.825c0 .708-.58 1.287-1.289 1.287-.676 0-1.256-.58-1.256-1.287zm8.114 10.98c3.734 0 6.182-1.996 6.182-4.959v-.062c0-3.221-2.414-4.894-6.053-4.894h-5.699v9.917h5.57z" />
          <path d="m93.603 18.5c0-.708.579-1.288 1.255-1.288.709 0 1.288.58 1.288 1.288v20.283c0 .708-.579 1.287-1.288 1.287-.676 0-1.255-.579-1.255-1.287z" />
          <path d="m102.744 18.532c0-.676.58-1.256 1.256-1.256h.354c.58 0 .935.29 1.288.74l13.684 17.45v-16.998c0-.676.547-1.256 1.256-1.256.676 0 1.225.58 1.225 1.256v20.349c0 .677-.48 1.19-1.158 1.19h-.129c-.548 0-.936-.321-1.318-.772l-13.976-17.867v17.449c0 .677-.547 1.257-1.257 1.257-.676 0-1.223-.58-1.223-1.257v-20.285z" />
          <path d="m128.173 18.5c0-.708.58-1.288 1.257-1.288.708 0 1.286.58 1.286 1.288v12.331l12.848-13.16c.29-.257.579-.451.998-.451.676 0 1.225.612 1.225 1.256 0 .354-.162.644-.42.901l-7.984 7.92 8.564 10.561c.225.291.354.547.354.936 0 .676-.577 1.288-1.285 1.288-.482 0-.807-.259-1.03-.58l-8.401-10.464-4.863 4.861v4.895c0 .708-.578 1.288-1.286 1.288-.677 0-1.257-.58-1.257-1.288v-20.294z" />
      </g>
      <path d="m60.462 28.016c-.002-.009-5.175-21.365-5.175-21.365-.361-2.348-2.593-6.651-8.599-6.651-.829 0-1.5.671-1.5 1.5s.671 1.5 1.5 1.5c4.856 0 5.575 3.729 5.639 4.143l4.767 19.701h-2.073c-.742-5.927-5.802-10.531-11.927-10.531s-11.186 4.604-11.927 10.531h-1.82c-.741-5.927-5.802-10.531-11.927-10.531s-11.185 4.604-11.927 10.531h-2.073l4.767-19.701c.063-.414.783-4.143 5.639-4.143.829 0 1.5-.671 1.5-1.5s-.671-1.5-1.5-1.5c-6.006 0-8.238 4.303-8.599 6.651 0 0-5.173 21.356-5.175 21.365-.266 1.109.531 1.826 1.426 1.826.012 0 .023.004.036.004h3.982c.741 5.926 5.802 10.53 11.927 10.53s11.185-4.604 11.927-10.53h1.814c.742 5.926 5.802 10.53 11.927 10.53s11.186-4.604 11.927-10.53h3.982c.012 0 .023-.004.036-.004.895 0 1.692-.717 1.426-1.826zm-34.147 1.828c-.715 4.272-4.421 7.531-8.896 7.531s-8.18-3.259-8.896-7.531c-.082-.488-.135-.988-.135-1.5s.053-1.011.135-1.5c.715-4.271 4.421-7.531 8.896-7.531s8.18 3.26 8.896 7.531c.082.489.135.988.135 1.5s-.053 1.011-.135 1.5zm25.675 0c-.716 4.272-4.421 7.531-8.896 7.531s-8.181-3.259-8.896-7.531c-.082-.488-.135-.988-.135-1.5s.053-1.011.135-1.5c.716-4.271 4.421-7.531 8.896-7.531s8.181 3.26 8.896 7.531c.082.489.135.988.135 1.5s-.053 1.011-.135 1.5z" fill="#d22856" />
    </g>
  </symbol>
  <symbol id="header-logo" viewBox="0 0 146.3 40.375">
    <g class="main-header__logo-svggroup main-header__logo-svggroup--big">
      <g>
          <path d="M71.874,18.661c0-0.708,0.58-1.288,1.256-1.288h7.18c5.087,0,8.436,2.704,8.436,7.146v0.064 c0,4.861-4.057,7.373-8.854,7.373h-5.475v6.825c0,0.708-0.58,1.288-1.288,1.288c-0.676,0-1.256-0.58-1.256-1.288V18.661z M79.988,29.641c3.734,0,6.182-1.996,6.182-4.959v-0.063c0-3.22-2.414-4.894-6.053-4.894h-5.699v9.917H79.988L79.988,29.641z" />
          <path d="M93.603,18.5c0-0.708,0.579-1.288,1.255-1.288c0.709,0,1.288,0.58,1.288,1.288v20.283 c0,0.708-0.579,1.287-1.288,1.287c-0.676,0-1.255-0.579-1.255-1.287V18.5z" />
          <path d="M102.744,18.532c0-0.676,0.58-1.256,1.256-1.256h0.354c0.58,0,0.935,0.29,1.288,0.74l13.684,17.45V18.468 c0-0.676,0.547-1.256,1.256-1.256c0.676,0,1.224,0.58,1.224,1.256v20.349c0,0.676-0.481,1.19-1.158,1.19h-0.129c-0.548,0-0.935-0.321-1.319-0.772l-13.975-17.868v17.45c0,0.676-0.547,1.256-1.256,1.256c-0.676,0-1.223-0.58-1.223-1.256V18.532 H102.744z" />
          <path d="M128.173,18.5c0-0.708,0.58-1.288,1.257-1.288c0.708,0,1.286,0.58,1.286,1.288v12.331l12.848-13.168 c0.29-0.257,0.579-0.451,0.998-0.451c0.676,0,1.225,0.612,1.225,1.256c0,0.354-0.162,0.644-0.42,0.901l-7.984,7.92l8.564,10.561 c0.225,0.291,0.354,0.547,0.354,0.935c0,0.676-0.578,1.288-1.286,1.288c-0.483,0-0.806-0.258-1.03-0.58l-8.402-10.463l-4.863,4.861 v4.894c0,0.708-0.578,1.288-1.286,1.288c-0.677,0-1.257-0.58-1.257-1.288V18.5H128.173z" />
      </g>
      <path fill="#D22856" d="M98.498,9.875c-2.002,0-3.623-1.623-3.623-3.624c0,2.001-1.623,3.624-3.625,3.624 c2.002,0,3.625,1.623,3.625,3.624C94.875,11.498,96.496,9.875,98.498,9.875z" />
      <g>
          <path d="M43.094,19.313c0.246,0,0.489,0.014,0.73,0.033c-0.437-0.728-1.227-1.221-2.136-1.221 c-0.877,0-1.614-0.568-1.884-1.354c-0.727,0.208-1.425,0.482-2.089,0.816c0.062,0.017,0.122,0.038,0.188,0.038c1.104,0,2,0.896,2,2 c0,0.096-0.015,0.188-0.028,0.281C40.875,19.524,41.959,19.313,43.094,19.313z" />
          <path d="M60.462,28.016c-0.002-0.009-5.175-21.365-5.175-21.365C54.926,4.303,52.694,0,46.688,0 c-0.829,0-1.5,0.671-1.5,1.5s0.671,1.5,1.5,1.5c4.856,0,5.575,3.729,5.639,4.143l4.767,19.701h-2.073 c-0.445-3.557-2.453-6.628-5.305-8.522c-0.897,0.379-1.529,1.269-1.529,2.303c0,0.088-0.015,0.171-0.026,0.256 c1.991,1.358,3.415,3.489,3.829,5.964c0.082,0.489,0.135,0.988,0.135,1.5s-0.053,1.012-0.135,1.5 c-0.716,4.272-4.421,7.531-8.896,7.531c-4.475,0-8.181-3.259-8.896-7.531c-0.082-0.488-0.135-0.988-0.135-1.5 s0.053-1.011,0.135-1.5c0.147-0.878,0.427-1.711,0.808-2.483c-1.034-0.078-1.852-0.932-1.852-1.985 c0-0.189-0.077-0.357-0.192-0.489c-0.938,1.469-1.569,3.15-1.795,4.958h-1.82c-0.741-5.927-5.802-10.531-11.927-10.531 S6.235,20.917,5.493,26.844H3.42L8.187,7.143C8.25,6.729,8.97,3,13.826,3c0.829,0,1.5-0.671,1.5-1.5S14.655,0,13.826,0 C7.82,0,5.588,4.303,5.227,6.651c0,0-5.173,21.356-5.175,21.365c-0.266,1.109,0.531,1.826,1.426,1.826 c0.012,0,0.023,0.004,0.036,0.004h3.982c0.079,0.628,0.215,1.237,0.387,1.831c0.059-0.106,0.102-0.224,0.102-0.354 c0-1.104,0.896-2,2-2c0.166,0,0.324,0.025,0.478,0.063c-0.043-0.343-0.074-0.688-0.074-1.042c0-0.512,0.053-1.011,0.135-1.5 c0.715-4.271,4.421-7.531,8.896-7.531s8.18,3.26,8.896,7.531c0.082,0.489,0.135,0.988,0.135,1.5s-0.053,1.012-0.135,1.5 c-0.715,4.272-4.421,7.531-8.896,7.531c-2.022,0-3.883-0.67-5.386-1.794c-0.35,0.302-0.8,0.491-1.299,0.491 c-0.413,0-0.749,0.336-0.749,0.748c0,0.29-0.065,0.564-0.176,0.812c2.075,1.708,4.722,2.743,7.614,2.743 c6.125,0,11.185-4.604,11.927-10.53h1.814c0.742,5.926,5.802,10.53,11.927,10.53s11.186-4.604,11.927-10.53H59 c0.012,0,0.023-0.004,0.036-0.004C59.931,29.842,60.728,29.125,60.462,28.016z" />
      </g>
      <g>
          <g>
              <path fill="#D22856" d="M50.686,16.125c-2.485,0-4.499-2.014-4.499-4.499c0,2.485-2.014,4.499-4.499,4.499 c2.485,0,4.499,2.014,4.499,4.499C46.187,18.139,48.2,16.125,50.686,16.125z" />
          </g>
      </g>
      <g>
          <g>
              <path fill="#D22856" d="M37.904,19.626c-1.519,0-2.749-1.23-2.749-2.749c0,1.519-1.23,2.749-2.749,2.749 c1.519,0,2.749,1.229,2.749,2.749C35.155,20.855,36.386,19.626,37.904,19.626z" />
          </g>
      </g>
      <g>
          <g>
              <path fill="#D22856" d="M10.734,34.072c-1.519,0-2.749-1.23-2.749-2.75c0,1.52-1.23,2.75-2.749,2.75 c1.519,0,2.749,1.229,2.749,2.748C7.985,35.303,9.215,34.072,10.734,34.072z" />
          </g>
      </g>
    </g>
    <g class="main-header__logo-svggroup main-header__logo-svggroup--medium">
      <g>
          <path d="m71.874 18.661c0-.708.58-1.288 1.256-1.288h7.18c5.087 0 8.436 2.704 8.436 7.146v.064c0 4.861-4.057 7.373-8.854 7.373h-5.475v6.825c0 .708-.58 1.288-1.288 1.288-.676 0-1.256-.58-1.256-1.288v-20.12zm8.114 10.98c3.734 0 6.182-1.996 6.182-4.959v-.063c0-3.22-2.414-4.894-6.053-4.894h-5.699v9.917h5.57z" />
          <path d="m93.603 18.5c0-.708.579-1.288 1.255-1.288.709 0 1.288.58 1.288 1.288v20.283c0 .708-.579 1.287-1.288 1.287-.676 0-1.255-.579-1.255-1.287z" />
          <path d="m102.744 18.532c0-.676.58-1.256 1.256-1.256h.354c.58 0 .935.29 1.288.74l13.684 17.45v-16.998c0-.676.547-1.256 1.256-1.256.676 0 1.224.58 1.224 1.256v20.349c0 .676-.481 1.19-1.158 1.19h-.129c-.548 0-.935-.321-1.319-.772l-13.975-17.868v17.45c0 .676-.547 1.256-1.256 1.256-.676 0-1.223-.58-1.223-1.256v-20.285z" />
          <path d="m128.173 18.5c0-.708.58-1.288 1.257-1.288.708 0 1.286.58 1.286 1.288v12.331l12.848-13.168c.29-.257.579-.451.998-.451.676 0 1.225.612 1.225 1.256 0 .354-.162.644-.42.901l-7.984 7.92 8.564 10.561c.225.291.354.547.354.935 0 .676-.578 1.288-1.286 1.288-.483 0-.806-.258-1.03-.58l-8.402-10.463-4.863 4.861v4.894c0 .708-.578 1.288-1.286 1.288-.677 0-1.257-.58-1.257-1.288v-20.285z" />
          <path d="m60.462 28.016c-.002-.009-5.175-21.365-5.175-21.365-.361-2.348-2.593-6.651-8.599-6.651-.829 0-1.5.671-1.5 1.5s.671 1.5 1.5 1.5c4.856 0 5.575 3.729 5.639 4.143l4.767 19.701h-2.073c-.742-5.927-5.802-10.531-11.927-10.531s-11.186 4.604-11.927 10.531h-1.82c-.741-5.927-5.802-10.531-11.927-10.531s-11.185 4.604-11.927 10.531h-2.073l4.767-19.701c.063-.414.783-4.143 5.639-4.143.829 0 1.5-.671 1.5-1.5s-.671-1.5-1.5-1.5c-6.006 0-8.238 4.303-8.599 6.651 0 0-5.173 21.356-5.175 21.365-.266 1.109.531 1.826 1.426 1.826.012 0 .023.004.036.004h3.982c.741 5.926 5.802 10.53 11.927 10.53s11.185-4.604 11.927-10.53h1.814c.742 5.926 5.802 10.53 11.927 10.53s11.186-4.604 11.927-10.53h3.982c.012 0 .023-.004.036-.004.895 0 1.692-.717 1.426-1.826zm-34.147 1.828c-.715 4.272-4.421 7.531-8.896 7.531s-8.18-3.259-8.896-7.531c-.082-.488-.135-.988-.135-1.5s.053-1.011.135-1.5c.715-4.271 4.421-7.531 8.896-7.531s8.18 3.26 8.896 7.531c.082.489.135.988.135 1.5s-.053 1.011-.135 1.5zm25.675 0c-.716 4.272-4.421 7.531-8.896 7.531s-8.181-3.259-8.896-7.531c-.082-.488-.135-.988-.135-1.5s.053-1.011.135-1.5c.716-4.271 4.421-7.531 8.896-7.531s8.181 3.26 8.896 7.531c.082.489.135.988.135 1.5s-.053 1.011-.135 1.5z" />
      </g>
    </g>
    <g class="main-header__logo-svggroup main-header__logo-svggroup--small">
      <g>
          <path d="m0 1.449c0-.708.58-1.288 1.256-1.288h7.18c5.087 0 8.436 2.704 8.436 7.147v.064c0 4.861-4.057 7.373-8.854 7.373h-5.474v6.825c0 .708-.58 1.288-1.288 1.288-.676.001-1.256-.579-1.256-1.287zm8.114 10.979c3.734 0 6.182-1.996 6.182-4.958v-.065c0-3.22-2.415-4.894-6.054-4.894h-5.698v9.917z" />
          <path d="m21.729 1.288c0-.708.579-1.288 1.254-1.288.709 0 1.288.58 1.288 1.288v20.283c0 .708-.579 1.288-1.288 1.288-.676 0-1.255-.58-1.255-1.288v-20.283z" />
          <path d="m30.87 1.32c0-.676.579-1.256 1.256-1.256h.354c.58 0 .934.29 1.288.74l13.684 17.45v-16.998c-.001-.676.546-1.256 1.255-1.256.676 0 1.223.58 1.223 1.256v20.348c0 .676-.482 1.191-1.158 1.191h-.129c-.548 0-.934-.322-1.32-.772l-13.974-17.87v17.45c0 .676-.547 1.256-1.255 1.256-.677 0-1.224-.58-1.224-1.256z" />
          <path d="m56.3 1.288c0-.708.579-1.288 1.256-1.288.708 0 1.287.58 1.287 1.288v12.331l12.846-13.168c.29-.258.58-.451.999-.451.676 0 1.224.612 1.224 1.256 0 .354-.161.644-.419.901l-7.984 7.92 8.564 10.561c.225.29.354.547.354.934 0 .676-.579 1.288-1.287 1.288-.483 0-.806-.258-1.03-.58l-8.403-10.463-4.862 4.861v4.894c0 .708-.579 1.288-1.287 1.288-.677 0-1.256-.58-1.256-1.288v-20.284z" />
      </g>
    </g>
  </symbol>
</svg>
