<svg xmlns="http://www.w3.org/2000/svg"><symbol id="icon-editor-contrast" viewBox="-35.422 -7.96 31.92 31.92"><path d="m-19.462-3.96c6.595 0 11.96 5.365 11.96 11.96s-5.365 11.96-11.96 11.96-11.96-5.365-11.96-11.96 5.365-11.96 11.96-11.96m0-4c-8.814 0-15.96 7.145-15.96 15.96 0 8.813 7.146 15.96 15.96 15.96s15.96-7.147 15.96-15.96c0-8.815-7.146-15.96-15.96-15.96z" fill="#231f20"/><path d="m-19.462 16.331c4.706 0 8.52-3.813 8.52-8.52 0-4.705-3.813-8.519-8.52-8.519"/></symbol><symbol id="icon-editor-crop" viewBox="0 0 48 48"><path d="m0 0h48v48h-48z" fill="none"/><path d="m34 30h4v-16c0-2.21-1.79-4-4-4h-16v4h16zm-20 4v-32h-4v8h-8v4h8v20c0 2.21 1.79 4 4 4h20v8h4v-8h8v-4z"/></symbol><symbol id="icon-editor-diagram-fill" viewBox="22.5 69.048 253 253"><path d="m149 69.048c-69.864 0-126.5 56.636-126.5 126.5s56.636 126.5 126.5 126.5 126.5-56.636 126.5-126.5c0-69.863-56.636-126.5-126.5-126.5zm0 237.216c-60.844 0-110.167-49.323-110.167-110.167s49.323-110.167 110.167-110.167c60.843 0 110.167 49.323 110.167 110.167s-49.324 110.167-110.167 110.167z" fill="#231f20"/></symbol><symbol id="icon-editor-fill" viewBox="0 0 48 48"><path d="m0 0h48v48h-48z" fill="none"/><path d="m33.12 17.88-17.88-17.88-2.83 2.83 4.76 4.76-10.29 10.29c-1.17 1.17-1.17 3.07 0 4.24l11 11c.58.59 1.35.88 2.12.88s1.54-.29 2.12-.88l11-11c1.17-1.17 1.17-3.07 0-4.24zm-22.71 2.12 9.59-9.58 9.59 9.58zm27.59 3s-4 4.33-4 7c0 2.21 1.79 4 4 4s4-1.79 4-4c0-2.67-4-7-4-7z"/><path d="m0 40h48v3h-48z"/></symbol><symbol id="icon-facebook" viewBox="0 0 8.673 18.944"><path d="m6.275 3.357h2.398c0-1.119 0-2.238 0-3.357-.959 0-1.92 0-2.878 0-3.139.181-4.255 2.387-3.847 6.115h-1.948v3.517h1.958v9.312h3.837c0-3.104 0-6.208 0-9.312h2.857v-3.517h-2.866c-.021-1.045-.036-2.406.489-2.758z"/></symbol><symbol id="icon-heart" viewBox="521.939 473.064 12.545 11.99"><path d="m528.174 485.055c-.212 0-.412-.091-.552-.249-3.798-4.324-4.644-5.298-4.858-5.572h-.004c-.529-.675-.821-1.518-.821-2.373 0-2.095 1.704-3.799 3.799-3.799.934 0 1.804.32 2.484.898.696-.578 1.56-.898 2.463-.898 2.095 0 3.799 1.704 3.799 3.799 0 .909-.318 1.754-.896 2.381l-4.86 5.561c-.141.161-.342.252-.554.252zm-4.245-6.706c.208.255 2.471 2.839 4.243 4.858l4.323-4.944c.34-.369.52-.86.52-1.399 0-1.285-1.045-2.331-2.33-2.331-.729 0-1.421.344-1.9.943-.142.178-.353.267-.585.275-.227-.003-.439-.111-.575-.294-.441-.587-1.129-.925-1.887-.925-1.285 0-2.33 1.046-2.33 2.331 0 .678.275 1.171.507 1.467.004.006.01.012.014.019z"/></symbol><symbol id="icon-mail" viewBox="0 0 17.988 13.966"><g fill="#fff"><path d="m14.914 1.814c1.197-.998.902-1.814-.657-1.814h-10.526c-1.56 0-1.854.816-.657 1.814l3.742 3.118c1.197.998 3.158.998 4.355 0z"/><path d="m11.913 7.044c-1.198.998-2.195 1.825-2.218 1.836 0 0 0 0-.02.013-.074.056-.152.102-.235.136-.033.015-.066.034-.1.048-.11.034-.223.058-.335.059-.003 0-.007.001-.01.001 0 0 0 0-.001 0s-.001 0-.001 0c-.003 0-.007-.001-.01-.001-.113-.002-.224-.025-.335-.059-.034-.014-.068-.033-.1-.048-.083-.034-.16-.08-.235-.136-.02-.013-.02-.013-.02-.013-.022-.012-1.02-.838-2.218-1.836l-3.897-3.248c-1.199-.998-2.178-.539-2.178 1.02v6.315c0 1.56 1.275 2.835 2.835 2.835h12.318c1.56 0 2.835-1.275 2.835-2.835v-6.315c0-1.559-.979-2.018-2.178-1.02z"/></g></symbol><symbol id="icon-map-marker" viewBox="0 0 35.983 35.983"><circle cx="17.991" cy="17.991" fill="#fff" r="17.991"/><circle cx="17.991" cy="17.991" fill="#d22856" r="7.866"/></symbol><symbol id="icon-menu-burger" viewBox="0 0 49.945 24.007"><g fill="#fff"><path d="m1.137 0c-.627 0-1.137.428-1.137 1.01v1.981c0 .558.494 1.01 1.139 1.01h47.671c.628 0 1.138-.428 1.138-1.01v-1.981c0-.558-.494-1.01-1.138-1.01zm0 10.003c-.627 0-1.137.428-1.137 1.01v1.98c0 .557.494 1.01 1.139 1.01h47.671c.628 0 1.138-.428 1.138-1.01v-1.98c0-.558-.494-1.01-1.138-1.01zm0 10.002c-.627 0-1.137.429-1.137 1.011v1.981c0 .557.494 1.01 1.139 1.01h47.671c.628 0 1.138-.428 1.138-1.01v-1.981c0-.558-.494-1.011-1.138-1.011z"/><path d="m1.137 0c-.627 0-1.137.428-1.137 1.01v1.981c0 .558.494 1.01 1.139 1.01h47.671c.628 0 1.138-.428 1.138-1.01v-1.981c0-.558-.494-1.01-1.138-1.01zm0 10.003c-.627 0-1.137.428-1.137 1.01v1.98c0 .557.494 1.01 1.139 1.01h47.671c.628 0 1.138-.428 1.138-1.01v-1.98c0-.558-.494-1.01-1.138-1.01zm0 10.002c-.627 0-1.137.429-1.137 1.011v1.981c0 .557.494 1.01 1.139 1.01h47.671c.628 0 1.138-.428 1.138-1.01v-1.981c0-.558-.494-1.011-1.138-1.011z"/></g></symbol><symbol id="icon-menu-cross" viewBox="0 0 23.867 23.867"><path d="m15.087 11.933 8.56-8.559c.293-.293.293-.768 0-1.061l-2.093-2.093c-.14-.141-.331-.22-.531-.22-.199 0-.391.079-.529.22l-8.561 8.56-8.56-8.56c-.282-.282-.78-.282-1.061 0l-2.092 2.093c-.293.293-.293.768 0 1.061l8.56 8.559-8.56 8.559c-.293.293-.293.768 0 1.062l2.093 2.094c.141.142.331.22.53.22s.39-.078.53-.22l8.561-8.56 8.56 8.56c.141.142.332.22.53.22.199 0 .39-.078.53-.22l2.093-2.094c.293-.294.293-.769 0-1.062z" fill="#fff"/></symbol><symbol id="icon-no" viewBox="0 0 26.752 26.752"><path d="m15.497 13.376 10.815-10.814c.586-.585.586-1.535 0-2.121s-1.535-.586-2.121 0l-10.815 10.814-10.814-10.816c-.586-.586-1.535-.586-2.121 0-.586.585-.586 1.535 0 2.121l10.814 10.815-10.816 10.815c-.586.586-.586 1.535 0 2.121.293.293.677.439 1.061.439s.768-.146 1.061-.439l10.815-10.814 10.814 10.815c.293.293.677.439 1.061.439s.768-.146 1.061-.439c.586-.586.586-1.535 0-2.121z"/></symbol><symbol id="icon-phone" viewBox="0 0 19.697 19.696"><path d="m9.848 0c-3.508 0-7.025.628-8.302 1.878-1.058 1.04-1.412 2.874-1.53 4.035 0 0-.016.115-.016.165 0 .454.369.82.819.82.054 0 2.028-.161 3.218-.259.029-.004.058-.008.086-.017.443-.012.801-.372.801-.819l.003-1.617c0-.5.407-.902.907-.902h8.027c.499 0 .907.402.907.902l.003 1.617c0 .447.356.808.802.82.027.009.056.013.085.017 1.19.098 3.164.259 3.217.259.451 0 .822-.366.822-.82 0-.05-.018-.165-.018-.165-.118-1.161-.472-2.995-1.53-4.035-1.276-1.251-4.793-1.879-8.301-1.879zm0 10.67c-.908 0-1.643.733-1.643 1.64s.734 1.641 1.643 1.641c.906 0 1.641-.733 1.641-1.641-.001-.906-.735-1.64-1.641-1.64zm-1.232-3.695v-1.024c0-.567-.46-1.026-1.025-1.026-.566 0-1.024.459-1.024 1.026v1.024l-5.537 5.913c-.382.376-.619.894-.619 1.47v1.646c0 .907.734 1.643 1.641 1.643h.411v1.023c0 .568.46 1.026 1.026 1.026.565 0 1.024-.458 1.024-1.026v-1.023h10.669v1.023c0 .568.46 1.026 1.025 1.026.567 0 1.026-.458 1.026-1.026v-1.023h.411c.905 0 1.64-.735 1.64-1.643v-1.646c0-.576-.236-1.094-.618-1.47l-5.536-5.913v-1.024c0-.567-.459-1.026-1.024-1.026-.567 0-1.027.459-1.027 1.026v1.024zm1.232 2.053c1.814 0 3.282 1.468 3.282 3.282s-1.468 3.282-3.282 3.282c-1.813 0-3.281-1.468-3.281-3.282s1.467-3.282 3.281-3.282z" fill="#fff"/></symbol><symbol id="icon-quotes" viewBox="0 0 78.672 63.789">
  <path fill="#efefef" d="m34.967 7.063-4.254-7.063c-2.441 1.495-30.713 12.207-30.713 39.617 0 7.231.336 24.172 18.9 24.172 11.187 0 13.94-10.279 13.94-13.584 0-21.977-21.382-14.177-21.382-14.177 0-18.071 19.805-26.844 23.509-28.965z"/>
  <path fill="#efefef" d="m78.672 7.063-4.254-7.063c-2.44 1.495-30.713 12.207-30.713 39.617 0 7.231.337 24.172 18.9 24.172 11.187 0 13.939-10.279 13.939-13.584 0-21.977-21.381-14.177-21.381-14.177.002-18.071 19.806-26.844 23.509-28.965z"/></symbol><symbol id="icon-review-arrow-left" viewBox="0 0 21.706 41.719"><path d="m2.045 20.859 19.413-19.413c.331-.331.331-.867 0-1.198-.33-.331-.867-.331-1.197 0l-20.013 20.013c-.331.33-.331.867 0 1.197l20.013 20.013c.164.165.382.248.599.248s.434-.083.599-.248c.331-.331.331-.867 0-1.198z"/></symbol><symbol id="icon-review-arrow-right" viewBox="0 0 21.706 41.719"><path d="m19.661 20.859-19.413-19.413c-.331-.331-.331-.867 0-1.198.33-.331.867-.331 1.197 0l20.013 20.012c.33.33.33.867 0 1.197l-20.013 20.014c-.164.165-.382.248-.599.248s-.434-.083-.599-.248c-.331-.331-.331-.867 0-1.198z"/></symbol><symbol id="icon-timer" viewBox="0 0 298 345.097"><path fill="#dedede" d="m264.568 102.055 5.355-5.355c7.717-7.717 9.124-18.938 3.126-24.935-5.997-5.997-17.217-4.59-24.934 3.127l-5.386 5.385c-20.961-16.985-46.619-28.402-74.729-31.98v-9.583h7.658c10.914 0 19.843-8.711 19.843-19.357s-8.928-19.357-19.842-19.357h-53.317c-10.913 0-19.842 8.711-19.842 19.357s8.929 19.357 19.842 19.357h7.658v9.583c-73.319 9.332-130 71.947-130 147.8 0 82.291 66.709 149 149 149 82.29 0 149-66.709 149-149 0-35.663-12.535-68.394-33.432-94.042zm-115.568 204.209c-60.844 0-110.167-49.323-110.167-110.167s49.323-110.167 110.167-110.167c60.843 0 110.167 49.323 110.167 110.167s-49.324 110.167-110.167 110.167z"/></symbol><symbol id="icon-twitter" viewBox="0 0 17.5 14.663"><path clip-rule="evenodd" d="m11.283.153c1.736-.485 3.074.263 3.685 1.151.694-.226 1.372-.47 2.072-.691-.004.841-.538 1.478-.883 1.727.704.166 1.343-.48 1.343-.48-.175.976-1.035 1.746-1.611 1.977-.239 6.592-3.272 10.956-10.382 10.823-.538 0 .077 0-.46 0-.422 0-4.29-.45-5.047-1.843 2.341.192 4.011-.412 4.835-1.15-.989-.293-2.761-.464-3.07-2.881.362.105.583.223 1.228.117-1.236-.836-2.608-1.537-2.532-3.685.294.32 1.1.523 1.381.461-.725-.235-2.03-3.281-.921-4.836 1.873 1.811 3.848 3.521 7.369 3.685.216-2.24 1.171-3.741 2.993-4.375z" fill-rule="evenodd"/></symbol><symbol id="icon-yes" viewBox="-82.357 4.875 21.698 16.09"><path fill="#d22856" d="m-60.953 5.167c-.391-.391-1.023-.391-1.414 0l-13.383 13.384-4.9-4.9c-.391-.391-1.023-.391-1.414 0s-.391 1.023 0 1.414l5.607 5.607c.195.195.451.293.707.293s.512-.098.707-.293l14.09-14c.391-.481.391-1.114 0-1.505z"/></symbol><symbol id="icon-youtube" viewBox="0 0 14.64 13.96"><path d="m1.775 13.78c-.976.477-1.775-.022-1.775-1.109v-11.381c0-1.088.799-1.585 1.775-1.109l12.133 5.932c.975.478.975 1.258 0 1.736z"/></symbol></svg>